<svg xmlns="http://www.w3.org/2000/svg" xmlns:xlink="http://www.w3.org/1999/xlink" width="0" height="0" style="position:absolute">

<symbol id="icon-instagram" viewBox="0 0 32 32">
<path d="M21.6754 4H10.3246C8.63097 4.02312 7.01527 4.7156 5.83032 5.92624C4.64536 7.13688 3.98743 8.76732 4.00018 10.4615V21.5385C3.98743 23.2327 4.64536 24.8631 5.83032 26.0738C7.01527 27.2844 8.63097 27.9769 10.3246 28H21.6754C23.369 27.9769 24.9847 27.2844 26.1697 26.0738C27.3546 24.8631 28.0126 23.2327 27.9998 21.5385V10.4615C28.0126 8.76732 27.3546 7.13688 26.1697 5.92624C24.9847 4.7156 23.369 4.02312 21.6754 4V4ZM25.8481 21.3846C25.858 22.558 25.4031 23.6875 24.5829 24.5264C23.7627 25.3653 22.6438 25.8453 21.4708 25.8615H10.5292C9.35625 25.8453 8.23739 25.3653 7.41717 24.5264C6.59696 23.6875 6.14206 22.558 6.15193 21.3846V10.6231C6.14206 9.44972 6.59696 8.32017 7.41717 7.48128C8.23739 6.64238 9.35625 6.16238 10.5292 6.14615H21.4708C22.6438 6.16238 23.7627 6.64238 24.5829 7.48128C25.4031 8.32017 25.858 9.44972 25.8481 10.6231V21.3846Z"/>
<path d="M15.9934 9.83986C14.7689 9.81418 13.5646 10.1539 12.5339 10.8157C11.5033 11.4776 10.6931 12.4315 10.2067 13.5558C9.72033 14.6801 9.57974 15.9238 9.80293 17.1284C10.0261 18.3329 10.603 19.4437 11.4599 20.3189C12.3168 21.1942 13.4149 21.7943 14.6142 22.0427C15.8135 22.2911 17.0596 22.1766 18.1935 21.7137C19.3274 21.2508 20.2978 20.4605 20.9809 19.4437C21.6639 18.4268 22.0287 17.2295 22.0287 16.0045C22.0451 14.3866 21.4186 12.8284 20.2869 11.6724C19.1551 10.5165 17.6108 9.85731 15.9934 9.83986V9.83986ZM15.9934 19.9799C15.2038 19.9957 14.4273 19.776 13.763 19.3488C13.0987 18.9215 12.5767 18.306 12.2635 17.5807C11.9504 16.8555 11.8602 16.0534 12.0046 15.2767C12.149 14.5 12.5213 13.7839 13.0742 13.2198C13.6271 12.6556 14.3354 12.269 15.1088 12.1091C15.8823 11.9492 16.6858 12.0234 17.4169 12.3221C18.1481 12.6209 18.7737 13.1307 19.214 13.7865C19.6543 14.4423 19.8894 15.2145 19.8893 16.0045C19.8951 16.5216 19.799 17.0348 19.6062 17.5146C19.4135 17.9945 19.128 18.4316 18.7661 18.8009C18.4042 19.1702 17.973 19.4644 17.4972 19.6667C17.0214 19.869 16.5104 19.9754 15.9934 19.9799V19.9799Z"/>
<path d="M22.3539 10.8984C23.1065 10.8984 23.7166 10.2757 23.7166 9.50759C23.7166 8.73949 23.1065 8.11682 22.3539 8.11682C21.6013 8.11682 20.9912 8.73949 20.9912 9.50759C20.9912 10.2757 21.6013 10.8984 22.3539 10.8984Z"/>
</symbol>


<symbol id="icon-twitter" viewBox="0 0 32 32">
  <path d="M28.314 6.385a10.141 10.141 0 01-3.26 1.286 5.061 5.061 0 00-1.698-1.235A5.022 5.022 0 0021.31 6a5.179 5.179 0 00-3.65 1.583 5.27 5.27 0 00-1.478 3.722c-.002.407.042.813.13 1.21a14.362 14.362 0 01-5.882-1.621A14.489 14.489 0 015.733 6.97a5.437 5.437 0 00-.565 3.853 5.398 5.398 0 002.153 3.232 5.068 5.068 0 01-2.325-.66v.06a5.297 5.297 0 001.141 3.341 5.216 5.216 0 002.977 1.861 4.89 4.89 0 01-1.35.186c-.325 0-.65-.033-.97-.096a5.195 5.195 0 001.809 2.622 5.122 5.122 0 002.987 1.06 10.085 10.085 0 01-3.574 1.874 10.03 10.03 0 01-4.016.32A14.212 14.212 0 0011.862 27c9.438 0 14.594-8.084 14.594-15.1 0-.234 0-.462-.013-.688A10.616 10.616 0 0029 8.467a9.94 9.94 0 01-2.947.832 5.21 5.21 0 002.26-2.914z"/>
</symbol>

<symbol id="icon-arena" viewBox="0 0 32 32">
  <path d="M31.691 19.613L27.255 16.3c-.272-.202-.272-.534 0-.737l4.436-3.313c.273-.203.386-.546.253-.761-.133-.215-.505-.291-.825-.17l-5.275 1.997c-.32.123-.623-.044-.671-.37l-.793-5.353c-.05-.326-.307-.592-.573-.592-.266 0-.523.266-.57.592l-.794 5.353c-.049.326-.35.493-.672.37l-5.188-1.963c-.321-.122-.845-.122-1.166 0l-5.189 1.964c-.32.122-.623-.045-.671-.37l-.793-5.354C8.715 7.266 8.458 7 8.193 7c-.267 0-.524.266-.572.592l-.794 5.353c-.048.326-.35.493-.67.37L.88 11.32c-.32-.122-.692-.045-.825.17-.133.215-.02.557.252.76l4.437 3.313c.271.203.271.535 0 .738L.308 19.613c-.272.203-.385.566-.252.806.133.241.504.338.825.216l5.227-1.996c.322-.122.62.044.665.37l.754 5.4a.7.7 0 00.664.591c.32 0 .618-.266.664-.591l.756-5.4c.044-.326.344-.492.664-.37l5.142 1.962c.32.122.844.122 1.165 0l5.141-1.962c.32-.122.62.044.665.37l.755 5.4c.046.325.345.591.663.591a.7.7 0 00.664-.591l.756-5.4c.046-.326.344-.492.664-.37l5.229 1.996c.319.122.691.025.824-.216.134-.24.02-.602-.252-.805zm-11.286-3.272l-3.907 2.86c-.274.2-.722.2-.995 0l-3.908-2.86c-.273-.2-.275-.53-.004-.733l3.915-2.932a.875.875 0 01.987 0l3.916 2.932c.271.203.27.533-.005.734z"/>
</symbol>

<symbol id="icon-soundcloud" viewBox="0 0 32 32">
    <path d="M1.547 22.48a.134.134 0 00.133-.133l.36-2.8-.36-2.88a.143.143 0 00-.133-.134.143.143 0 00-.134.134l-.32 2.88.32 2.8c0 .08.067.133.134.133zM.36 21.413c.067 0 .12-.053.133-.12l.267-1.746-.267-1.774c-.013-.08-.066-.133-.133-.133s-.12.053-.133.133L0 19.547l.24 1.746c0 .067.053.134.133.134l-.013-.014zm2.6-5.28c0-.093-.08-.16-.16-.16s-.147.067-.16.16l-.293 3.414.293 3.28c0 .093.08.16.16.16s.147-.067.16-.147l.347-3.293-.347-3.414zm1.107 6.987c.106 0 .186-.08.186-.187l.32-3.386-.32-3.507a.182.182 0 00-.186-.187.186.186 0 00-.187.187l-.28 3.507.28 3.386a.19.19 0 00.187.187zm1.28.053a.21.21 0 00.213-.213l.307-3.413-.307-3.254a.21.21 0 00-.213-.213.213.213 0 00-.214.213l-.266 3.254.266 3.413c0 .133.094.213.214.213zm1.813-3.626l-.28-5.28c0-.134-.12-.24-.24-.24-.133 0-.24.093-.253.24l-.24 5.28.24 3.413a.26.26 0 00.253.24c.133 0 .227-.107.24-.24l.28-3.413zm.773 3.666c.134 0 .267-.12.267-.266l.267-3.4-.267-6.494a.267.267 0 10-.533 0l-.24 6.494.24 3.4c0 .146.133.266.266.266zm1.307-11a.296.296 0 00-.293.294l-.214 7.04.214 3.36c0 .173.133.293.293.293.16 0 .293-.133.293-.293l.254-3.36-.254-7.04a.296.296 0 00-.293-.294zm1.333 11c.16 0 .307-.133.307-.32l.227-3.333-.227-7.28a.32.32 0 00-.32-.333.327.327 0 00-.32.333l-.2 7.267.2 3.333c0 .187.133.333.32.333h.013zm1.32 0c.187 0 .347-.16.347-.36l.213-3.306-.213-7.094a.347.347 0 00-.347-.346.347.347 0 00-.36.346l-.173 7.094.173 3.306c0 .2.16.36.36.36zm1.907-3.666l-.187-6.827a.386.386 0 00-.386-.373.386.386 0 00-.374.373l-.173 6.827.173 3.293a.38.38 0 00.76 0l.187-3.293zm.787 3.68a.4.4 0 00.4-.4l.173-3.28-.173-8.134a.4.4 0 00-.8 0l-.16 8.134.146 3.266c0 .227.187.4.4.4l.014.014zm1.333-12.974a.44.44 0 00-.427.44l-.186 8.854.186 3.226c0 .227.2.427.427.427.24 0 .44-.2.44-.427l.187-3.226-.187-8.854a.44.44 0 00-.44-.44zm1.24 12.974h10.907a3.933 3.933 0 10-1.52-7.56 6.934 6.934 0 00-9.44-5.867c-.294.12-.374.24-.374.467V22.76c0 .24.187.44.427.467z" fill="currentColor"/>
</symbol>

<symbol id="icon-heart" viewBox="0 0 24 24">
  <path d="M20.458 5.503A5.274 5.274 0 0018.75 4.39a5.382 5.382 0 00-4.028 0 5.274 5.274 0 00-1.708 1.112L12 6.49l-1.014-.988A5.334 5.334 0 007.264 4c-1.396 0-2.735.54-3.722 1.503A5.064 5.064 0 002 9.13c0 1.36.555 2.665 1.542 3.627l1.014.989L12 21l7.444-7.254 1.014-.989a5.122 5.122 0 001.141-1.664 5.016 5.016 0 000-3.926 5.122 5.122 0 00-1.141-1.664v0z" stroke-width="1.5" stroke-linecap="round" stroke-linejoin="round"/>
</symbol>




<symbol id="icon-ig-left" viewBox="0 0 32 32">
  <path fill-rule="evenodd" clip-rule="evenodd" d="M16 4C9.373 4 4 9.373 4 16s5.373 12 12 12 12-5.373 12-12S22.627 4 16 4zm2 18.414L19.414 21l-5-5 5-5L18 9.586 11.586 16 18 22.414z" />
</symbol>

<symbol id="icon-ig-right" viewBox="0 0 32 32">
  <path fill-rule="evenodd" clip-rule="evenodd" d="M16 28c6.627 0 12-5.373 12-12S22.627 4 16 4 4 9.373 4 16s5.373 12 12 12zM14 9.586L12.586 11l5 5-5 5L14 22.414 20.414 16 14 9.586z"/>
</symbol>

<symbol id="icon-notes-right" viewBox="0 0 16 16">
  <path d="M10 3.5l-5 5 5 5" fill="none" stroke="currentColor" stroke-width="2" stroke-linecap="square"/>
</symbol>

<symbol id="icon-music-play" viewBox="0 0 48 48">
  <path d="M18.75 16.093a1 1 0 011.545-.839l12.165 7.908a1 1 0 010 1.676l-12.165 7.908a1 1 0 01-1.545-.839V16.093z" fill="#ffffff"/>
</symbol>

<symbol id="icon-music-pause" viewBox="0 0 48 48">
  <path fill-rule="evenodd" clip-rule="evenodd" d="M20.75 14.25a1 1 0 011 1v17.5a1 1 0 01-1 1h-2.5a1 1 0 01-1-1v-17.5a1 1 0 011-1h2.5zm9 0a1 1 0 011 1v17.5a1 1 0 01-1 1h-2.5a1 1 0 01-1-1v-17.5a1 1 0 011-1h2.5z" fill="#ffffff"/>
</symbol>

<symbol id="icon-music-song" viewBox="0 0 32 32">
  <path d="M7.333 26.667a3.333 3.333 0 100-6.667 3.333 3.333 0 000 6.667zM23.333 24a3.333 3.333 0 100-6.667 3.333 3.333 0 000 6.667z" stroke="currentColor" fill="none" stroke-width="2" stroke-linecap="round" stroke-linejoin="round"/>
  <path d="M10.667 22.667v-16l16-2.667v16" fill="none" stroke-width="2" stroke-linecap="round" stroke-linejoin="round"/>
</symbol>

<symbol id="icon-music-queue" viewBox="0 0 32 32">
  <path d="M6.667 4l18.666 12L6.667 28V4z" stroke-width="2" stroke-linecap="round" stroke-linejoin="round"/>
</symbol>


<symbol id="icon-project-folder-back" viewBox="0 0 128 100">
  <path d="M48.117 9.767c-1.795 0-3.16-1.995-4.656-4.181-.8-1.168-1.636-2.39-2.595-3.393-.28-.313-.589-.6-.923-.855C38.938.528 37.795 0 36.438 0v.016A6.665 6.665 0 0035.971 0H6.54C2.927 0 0 2.915 0 6.512v89.302a3.73 3.73 0 003.737 3.72h120.526a3.729 3.729 0 003.737-3.72V16.279c0-3.596-2.928-6.512-6.54-6.512H48.117z" fill="currentColor"/>
</symbol>

<symbol id="icon-project-folder-front" viewBox="0 0 128 100">
    <path d="M0 22.79c0-3.596 2.928-6.51 6.54-6.51h114.92c3.612 0 6.54 2.914 6.54 6.51v73.49a3.729 3.729 0 01-3.737 3.72H3.737A3.73 3.73 0 010 96.28V22.79z" fill="currentColor"/>
</symbol>

<symbol id="contact-send-icon" viewBox="0 0 24 24">
<path d="M10.3333 8.66667L4.49702 14.5L2 11.9957L12.0054 2L22 11.9848L19.4986 14.5L13.6666 8.66667L13.6667 22L10.3333 22L10.3333 8.66667Z"/>
</symbol>


<symbol id="icon-prev-song" viewBox="0 0 32 32">
<path d="M15.0001 11.0447C15.0001 10.2125 14.043 9.74444 13.3861 10.2553L7.01497 15.2107C6.50022 15.611 6.50022 16.389 7.01497 16.7894L13.3861 21.7448C14.043 22.2556 15.0001 21.7875 15.0001 20.9554V11.0447Z" fill="currentColor"/>
<path d="M26.0004 11.0446C26.0004 10.2124 25.0433 9.74433 24.3864 10.2552L18.0153 15.2106C17.5005 15.6109 17.5005 16.3889 18.0153 16.7893L24.3864 21.7447C25.0433 22.2555 26.0004 21.7874 26.0004 20.9553V11.0446Z" fill="currentColor"/>
</symbol>

<symbol id="icon-play-song" viewBox="0 0 32 32">
<path d="M10 9.01502C10 8.22385 10.8752 7.74601 11.5408 8.17384L22.6915 15.3422C23.3038 15.7358 23.3038 16.6309 22.6915 17.0245L11.5408 24.1929C10.8752 24.6207 10 24.1428 10 23.3517V9.01502Z" fill="currentColor"/>
</symbol>

<symbol id="icon-pause-song" viewBox="0 0 32 32">
<path d="M13 8H11C10.4477 8 10 8.44772 10 9V23C10 23.5523 10.4477 24 11 24H13C13.5523 24 14 23.5523 14 23V9C14 8.44772 13.5523 8 13 8Z" fill="currentColor"/>
<path d="M21 8H19C18.4477 8 18 8.44772 18 9V23C18 23.5523 18.4477 24 19 24H21C21.5523 24 22 23.5523 22 23V9C22 8.44772 21.5523 8 21 8Z" fill="currentColor"/>
</symbol>

<symbol id="icon-next-song" viewBox="0 0 32 32">
<path d="M17 20.9554C17 21.7875 17.9571 22.2556 18.6139 21.7447L24.9851 16.7894C25.4999 16.389 25.4999 15.611 24.9851 15.2106L18.6139 10.2553C17.9571 9.7444 17 10.2125 17 11.0446V20.9554Z" fill="currentColor"/>
<path d="M6 20.9554C6 21.7875 6.95708 22.2556 7.61394 21.7447L13.9851 16.7894C14.4999 16.389 14.4999 15.611 13.9851 15.2106L7.61394 10.2553C6.95708 9.7444 6 10.2125 6 11.0446V20.9554Z" fill="currentColor"/>
</symbol>

<symbol id="journal-empty-state" viewBox="0 0 48 48">
  <path fill-rule="evenodd" d="M38.31 6.09l4.585 4.474a3.578 3.578 0 00-.181-2.26 3.699 3.699 0 00-.824-1.201 3.86 3.86 0 00-1.25-.814 3.976 3.976 0 00-2.33-.2zm2.113 7.65l-5.407-5.275-25.05 24.44 5.407 5.275 25.05-24.44zM11.456 39.947L8.12 36.692l-1.251 4.475 4.587-1.22zM36.164 2.58a7.975 7.975 0 015.975 0 7.86 7.86 0 012.545 1.66 7.698 7.698 0 011.712 2.5 7.585 7.585 0 010 5.93 7.698 7.698 0 01-1.712 2.502L16.769 42.406a2 2 0 01-.882.5L4.514 45.934a2 2 0 01-2.44-2.471l3.102-11.096a2 2 0 01.529-.893L33.62 4.24a7.859 7.859 0 012.544-1.66z" clip-rule="evenodd"/>
</symbol>




</svg>

