<svg xmlns="http://www.w3.org/2000/svg" width="115" height="115" fill="currentColor" viewBox="0 0 115 115">
  <path fill="#fff" d="M56.71 0C45.38 0 34.863 2.966 26.288 8.528 11.006 18.072 2.75 30.752 4.216 42.446c1.168 9.44 8.451 17.238 20.677 22.273a2.73 2.73 0 011.247 1.008c.304.452.464.984.459 1.528v1.694c.049 1.654.3 3.297.748 4.89a18.742 18.742 0 005.65 8.985 18.732 18.732 0 008.603 4.252c16.345 3.382 32.51-11.475 41.754-20.359a1.504 1.504 0 012.114.03l1.69 1.698a.748.748 0 00.558.219.906.906 0 00.816-.575l6.161-15.784a.737.737 0 00-.34-.964.814.814 0 00-.61-.04L77.17 56.49a.854.854 0 00-.587.566.838.838 0 00.164.795l2.245 2.266a1.482 1.482 0 01.422 1.056 1.471 1.471 0 01-.456 1.042c-8.39 8.064-22.91 21.412-36.014 18.702a12.335 12.335 0 01-5.167-2.392 12.834 12.834 0 01-3.397-4.152 12.72 12.72 0 01-1.391-5.165c0-.156-.023-.312-.027-.471a1.53 1.53 0 01.479-1.154 1.558 1.558 0 011.182-.425h.034c1.207.108 2.386.161 3.535.159a32.396 32.396 0 004.804-.341c7.212-1.053 12.974-4.598 17.44-10.682 3.54-4.82 6.046-12.662 3.184-18.498-1.78-3.63-5.357-5.721-10.07-5.895-2.676-.1-5.418.693-8.377 2.417-4.613 2.68-8.675 6.837-11.822 11.709a43.618 43.618 0 00-3.31 6.162 42.627 42.627 0 00-1.904 5.224 1.477 1.477 0 01-.805.948 1.505 1.505 0 01-1.25.013C16.82 54.278 11.35 48.464 10.51 41.69c-1.141-9.229 6.034-19.633 19.195-27.841l.052-.038C37.294 8.9 46.613 6.303 56.71 6.303c28.48 0 51.653 22.962 51.657 51.193 0 27.749-22.596 50.629-50.587 51.189a51.833 51.833 0 01-32.295-10.344C16.208 91.377 9.583 81.505 6.69 70.332a16.526 16.526 0 01-.12-.46s-.037-.126-.108-.396a23.973 23.973 0 01-.65-3.519 44.717 44.717 0 01-.057-.515c-.18-1.98-.576-3.304-1.212-3.96a1.981 1.981 0 00-1.407-.675 2.004 2.004 0 00-1.436.627c-.535.485-.958 1.33-1.302 2.503a11.131 11.131 0 00-.374 3.655 27.14 27.14 0 00.374 3.534c.037.23.235 1.112.295 1.342 3.265 11.898 10.28 22.45 20.022 30.118 10.227 8.082 22.932 12.461 36.011 12.414 31.99 0 58.016-25.795 58.016-57.5S88.7 0 56.711 0zM34.036 59.914c.355-1.316.784-2.61 1.283-3.879a38.1 38.1 0 012.761-5.61c2.697-4.497 6.274-8.327 10.3-10.67 1.87-1.083 3.512-1.602 4.919-1.554 3.498.126 4.317 1.802 4.586 2.35 1.4 2.856.255 8.158-2.619 12.036-3.224 4.39-7.28 7.045-12.409 7.998-2.01.367-4.056.5-6.097.396a34.858 34.858 0 01-2.095-.148.752.752 0 01-.524-.32.739.739 0 01-.105-.6z"/>
</svg>
