<svg xmlns="http://www.w3.org/2000/svg" width="128" height="32" fill="currentColor" viewBox="0 0 128 32">
  <g clip-path="url(#clip0)">
    <path fill="#fff" fill-rule="evenodd" d="M3.928 0h24c2.2 0 4 1.8 4 4v24c0 2.2-1.8 4-4 4h-24c-2.2 0-4-1.8-4-4v-5.374l.056.033c1.365.795 4.592 2.674 5.382 3.12.479.27.937.264 1.398-.002.276-.16 3.302-1.9 6.36-3.66l.015-.01.06-.034 6.515-3.75c.277-.16.29-.65-.02-.828l-.217-.123-.002-.001c-.316-.18-.725-.413-.9-.516a1.02 1.02 0 00-.997.012c-.155.09-10.501 6.039-10.847 6.235a1.349 1.349 0 01-1.339 0l-5.464-3.175v-2.693l.056.033c1.365.795 4.592 2.674 5.382 3.12.479.27.937.264 1.398-.002l6.366-3.664.024-.014.02-.011.01-.006 6.53-3.758c.277-.16.29-.651-.02-.828l-.217-.124c-.316-.18-.727-.414-.902-.517a1.02 1.02 0 00-.997.012c-.155.09-10.501 6.039-10.847 6.235a1.349 1.349 0 01-1.339 0l-5.464-3.175v-2.693l.056.033c1.364.795 4.592 2.674 5.382 3.12.479.27.937.264 1.398-.002.276-.16 3.311-1.906 6.374-3.668l.008-.005 6.568-3.78c.277-.16.29-.65-.02-.828l-.217-.124c-.317-.18-.727-.414-.902-.516a1.02 1.02 0 00-.997.012c-.155.089-10.501 6.038-10.847 6.235a1.349 1.349 0 01-1.339 0L-.072 9.143V4c0-2.2 1.8-4 4-4zM55.65 19.082c0 .515.089 1.014.264 1.491.176.482.432.905.774 1.274s.752.664 1.231.884c.48.22 1.024.331 1.631.331.608 0 1.152-.11 1.632-.331a3.77 3.77 0 002.005-2.158c.172-.477.26-.976.26-1.491a4.38 4.38 0 00-.26-1.495 3.78 3.78 0 00-.774-1.27 3.861 3.861 0 00-1.231-.885 3.864 3.864 0 00-1.632-.333c-.607 0-1.152.112-1.63.333-.48.22-.89.515-1.232.884a3.74 3.74 0 00-.774 1.271c-.175.48-.263.98-.263 1.495zm-3.316 0c0-1.051.19-2.005.568-2.863a6.664 6.664 0 011.534-2.198 6.775 6.775 0 012.293-1.41 8 8 0 012.821-.498c.995 0 1.936.167 2.82.498.884.332 1.649.803 2.295 1.41a6.691 6.691 0 011.534 2.198c.378.858.567 1.812.567 2.863 0 1.05-.189 2.004-.567 2.861a6.69 6.69 0 01-1.534 2.199 6.765 6.765 0 01-2.295 1.408 7.933 7.933 0 01-2.82.498 7.946 7.946 0 01-2.821-.498 6.734 6.734 0 01-2.293-1.408 6.663 6.663 0 01-1.534-2.199c-.379-.857-.568-1.81-.568-2.861zM71.63 19.085c0 .516.087 1.015.263 1.492.175.482.432.905.773 1.274.343.369.752.663 1.231.884.48.22 1.024.33 1.632.33.607 0 1.152-.11 1.63-.33a3.761 3.761 0 002.005-2.158 4.376 4.376 0 000-2.986 3.773 3.773 0 00-2.004-2.155 3.864 3.864 0 00-1.631-.333c-.608 0-1.152.112-1.632.333-.479.22-.889.515-1.23.884-.342.37-.599.792-.774 1.271-.176.48-.264.98-.264 1.494zm7.852 4.644h-.056c-.48.813-1.123 1.402-1.935 1.771a6.292 6.292 0 01-2.626.552c-1.033 0-1.948-.178-2.752-.538a6.162 6.162 0 01-3.36-3.693 8.26 8.26 0 01-.44-2.736c0-.976.155-1.89.47-2.738a6.815 6.815 0 011.312-2.212 6.079 6.079 0 012.031-1.478 6.22 6.22 0 012.6-.54 6.46 6.46 0 011.66.193c.48.13.902.295 1.271.5a4.809 4.809 0 011.575 1.325h.083v-7.31c0-.332.263-.722.724-.722h1.874c.433 0 .721.364.721.721v18.174c0 .461-.391.723-.721.723h-1.706a.732.732 0 01-.725-.722v-1.27zM88.158 19.082c0 .515.088 1.014.263 1.491.176.482.432.905.774 1.274s.752.664 1.231.884c.479.22 1.024.331 1.631.331.608 0 1.152-.11 1.632-.331a3.763 3.763 0 002.005-2.158c.173-.477.26-.976.26-1.491 0-.516-.087-1.015-.26-1.495a3.774 3.774 0 00-2.005-2.155 3.864 3.864 0 00-1.632-.333c-.607 0-1.152.112-1.631.333-.48.22-.889.515-1.23.884-.343.37-.6.792-.775 1.271-.175.48-.263.98-.263 1.495zm-3.317 0c0-1.051.19-2.005.568-2.863a6.663 6.663 0 011.534-2.198 6.777 6.777 0 012.293-1.41 8 8 0 012.821-.498c.995 0 1.936.167 2.82.498.884.332 1.649.803 2.294 1.41a6.69 6.69 0 011.535 2.198c.378.858.567 1.812.567 2.863 0 1.05-.19 2.004-.567 2.861a6.688 6.688 0 01-1.535 2.199 6.766 6.766 0 01-2.295 1.408 7.934 7.934 0 01-2.819.498 7.946 7.946 0 01-2.821-.498 6.736 6.736 0 01-2.293-1.408 6.662 6.662 0 01-1.534-2.199c-.379-.857-.568-1.81-.568-2.861zM100.945 7.94c0-.536.198-1 .594-1.398.398-.396.9-.594 1.507-.594.608 0 1.121.19 1.535.568.414.377.623.852.623 1.424a1.85 1.85 0 01-.623 1.424c-.414.378-.927.567-1.535.567-.607 0-1.109-.198-1.507-.596-.396-.396-.594-.86-.594-1.395zM114.64 16.122c-.33 0-.574-.25-.616-.36-.276-.722-1.155-.994-1.864-.994-1.119 0-1.998.52-1.998 1.411 0 .863.85 1.039 1.375 1.198.577.175 1.677.414 2.284.557a7.411 7.411 0 011.728.637c1.762.914 2.013 2.353 2.013 3.22 0 3.196-3.168 4.257-5.367 4.257-1.694 0-4.879-.257-5.578-3.489-.068-.314.211-.797.722-.797h1.831c.361 0 .604.262.674.469.236.65.984 1.14 2.245 1.14 1.354 0 2.154-.537 2.154-1.25 0-.462-.262-.873-.604-1.104-1.026-.696-3.564-.775-4.942-1.508-.527-.28-1.851-.922-1.851-3.11 0-3.014 2.74-4.286 5.148-4.286 3.551 0 4.854 2.244 5.001 3.075.082.46-.175.934-.692.934h-1.663zM117.833 14.48v-1.372c0-.328.258-.721.717-.721h1.769v-3.37c0-.36.245-.58.43-.66.109-.049 1.099-.48 1.889-.825.552-.227 1 .228 1 .666v4.189h2.928c.452 0 .722.395.722.721v1.374a.746.746 0 01-.722.724h-2.928v5.807c0 .664-.019 1.182.234 1.566.233.351.574.481 1.258.481.196 0 .371-.032.518-.083a.706.706 0 01.868.318c.216.418.463.877.636 1.206.191.361.038.824-.31.993-.562.273-1.339.494-2.406.494-.885 0-1.386-.097-1.946-.29a3.353 3.353 0 01-1.417-1c-.324-.396-.484-.926-.604-1.516-.121-.59-.15-1.305-.15-2.08v-5.896h-1.764c-.464 0-.722-.4-.722-.726zM41.928 14.48v-1.372c0-.328.259-.721.717-.721h2.021v-3.37c0-.36.245-.58.43-.66l1.89-.825c.552-.227 1 .228 1 .666v4.189h2.928c.451 0 .721.395.721.721v1.374a.745.745 0 01-.721.724h-2.929v5.807c0 .664-.018 1.182.235 1.566.233.351.574.481 1.257.481.196 0 .371-.032.519-.083a.706.706 0 01.868.318c.216.418.463.877.636 1.206.19.361.037.824-.31.993-.563.273-1.34.494-2.407.494-.884 0-1.385-.097-1.945-.29a3.35 3.35 0 01-1.417-1c-.324-.396-.485-.926-.604-1.516-.122-.59-.15-1.305-.15-2.08v-5.896H42.65c-.463 0-.722-.4-.722-.726zM102.116 25.721h1.875a.724.724 0 00.722-.722V13.11a.724.724 0 00-.722-.722h-1.875a.724.724 0 00-.722.721V25c0 .397.325.722.722.722z" clip-rule="evenodd"/>
  </g>
  <defs>
    <clipPath id="clip0">
      <path fill="#fff" d="M0 0h127.28v32H0V0z"/>
    </clipPath>
  </defs>
</svg>
